<svg xmlns="http://www.w3.org/2000/svg" width="9.167" height="11.259" viewBox="0 0 9.167 11.259"><defs><style>.a{fill:#fff;}</style></defs><g transform="translate(0 0)"><path class="a" d="M-207.5-205.1h.705v5.641h-.705Z" transform="translate(210.321 208.602)"/><path class="a" d="M-201.5-205.1h.705v5.641h-.705Z" transform="translate(205.731 208.602)"/><path class="a" d="M-195.5-205.1h.705v5.641h-.705Z" transform="translate(201.141 208.602)"/><path class="a" d="M-219.5-214.1h9.167v.705H-219.5Z" transform="translate(219.5 215.487)"/><path class="a" d="M-203.921-218.261h-.658v-.705a.371.371,0,0,0-.376-.376h-1.41a.371.371,0,0,0-.376.376v.705h-.658v-.705A1.043,1.043,0,0,1-206.366-220h1.41a1.043,1.043,0,0,1,1.034,1.034v.705" transform="translate(210.244 220)"/><path class="a" d="M-210.506-203.157h-4.231a1.141,1.141,0,0,1-1.1-1.034l-.658-8.462.705-.047.658,8.462a.426.426,0,0,0,.4.376h4.231a.409.409,0,0,0,.4-.376l.658-8.462.705.047-.658,8.462a1.122,1.122,0,0,1-1.1,1.034" transform="translate(217.205 214.416)"/></g></svg>