<svg xmlns="http://www.w3.org/2000/svg" width="10.353" height="10.523" viewBox="0 0 10.353 10.523"><defs><style>.a{fill:#fff;}</style></defs><path class="a" d="M8.084,5a.771.771,0,0,0-.125.17l-.023-.023-.014.1a.832.832,0,0,0-.059.416L7.643,7.2l1.549-.221a.832.832,0,0,0,.416-.059l.1-.013-.023-.023a.785.785,0,0,0,.17-.125l2.8-2.8L10.884,2.2Z" transform="translate(-3.41 -0.981)"/><path class="a" d="M16.447.952,15.965.47A.874.874,0,0,0,14.732.417l-.441.441,1.767,1.767.441-.442A.872.872,0,0,0,16.447.952Z" transform="translate(-6.376 -0.084)"/><path class="a" d="M8.308,5.37V9.415h-7.2V1.108H6.066L6.91.321A.757.757,0,0,1,7.217.159.678.678,0,0,1,7.315,0H0V10.523H9.415V4.391Z" transform="translate(0 0)"/></svg>