<svg id="Fill" xmlns="http://www.w3.org/2000/svg" width="26.24" height="24.365" viewBox="0 0 26.24 24.365">
  <path id="Path_1899" data-name="Path 1899" d="M24.491,3.874V2H22.617V3.874H7.623V2H5.749V3.874H2v19.68a2.811,2.811,0,0,0,2.811,2.811H25.428a2.811,2.811,0,0,0,2.811-2.811V3.874Zm1.874,19.68a.937.937,0,0,1-.937.937H4.811a.937.937,0,0,1-.937-.937V5.749H5.749V8.56H7.623V5.749H22.617V8.56h1.874V5.749h1.874Z" transform="translate(-2 -2)" fill="rgba(255,255,255,0.28)"/>
  <path id="Path_1900" data-name="Path 1900" d="M6,16.623h5.623V11H6Zm1.874-3.749H9.749v1.874H7.874Z" transform="translate(-2.251 -2.566)" fill="rgba(255,255,255,0.28)"/>
  <path id="Path_1901" data-name="Path 1901" d="M13,16.623h5.623V11H13Zm1.874-3.749h1.874v1.874H14.874Z" transform="translate(-2.692 -2.566)" fill="rgba(255,255,255,0.28)"/>
  <path id="Path_1902" data-name="Path 1902" d="M20,16.623h5.623V11H20Zm1.874-3.749h1.874v1.874H21.874Z" transform="translate(-3.132 -2.566)" fill="rgba(255,255,255,0.28)"/>
  <path id="Path_1903" data-name="Path 1903" d="M6,23.623h5.623V18H6Zm1.874-3.749H9.749v1.874H7.874Z" transform="translate(-2.251 -3.006)" fill="rgba(255,255,255,0.28)"/>
  <path id="Path_1904" data-name="Path 1904" d="M13,23.623h5.623V18H13Zm1.874-3.749h1.874v1.874H14.874Z" transform="translate(-2.692 -3.006)" fill="rgba(255,255,255,0.28)"/>
</svg>
