<svg xmlns="http://www.w3.org/2000/svg" width="12.976" height="8.762" viewBox="0 0 12.976 8.762"><defs><style>.a{fill:#191919;}.b{fill:#fff;}.c{fill:#e83a2a;}</style></defs><g transform="translate(0 0)"><path class="a" d="M9.18,49.24a4.642,4.642,0,0,0-1.67,3.837,5.314,5.314,0,0,0,1.648,4.115,3.832,3.832,0,0,0,.83-.741,4.348,4.348,0,0,1-1.361-3.3,3.994,3.994,0,0,1,1.35-3.173C9.977,49.935,9.358,49.24,9.18,49.24Z" transform="translate(-7.106 -48.836)"/><path class="a" d="M1.569,50.011a.459.459,0,0,1-.058,0c-.083-.01-.208-.026-.545-.4a5.124,5.124,0,0,1-.611-.852A6.48,6.48,0,0,1-.49,45.492a5.685,5.685,0,0,1,.876-3.117,4.534,4.534,0,0,1,.628-.777c.353-.347.48-.347.571-.347.176,0,.364.079.752.475.448.454.448.55.448.671a.51.51,0,0,1-.217.389A3.526,3.526,0,0,0,1.435,45.57,3.954,3.954,0,0,0,2.607,48.5a.484.484,0,0,1,.189.363c0,.146,0,.243-.617.787-.289.254-.439.358-.609.358Zm.042-7.865A4.519,4.519,0,0,0,.318,45.492a5.277,5.277,0,0,0,1.276,3.6c.078-.067.166-.147.245-.222a4.757,4.757,0,0,1-1.212-3.3,4.44,4.44,0,0,1,1.212-3.2c-.075-.078-.157-.16-.227-.224Z" transform="translate(0.49 -41.25)"/><path class="a" d="M53.75,78.6a2.553,2.553,0,0,0-1.117,2.367,3.253,3.253,0,0,0,1.06,2.655,3.789,3.789,0,0,0,.719-.73,2.347,2.347,0,0,1-.741-1.792,2.429,2.429,0,0,1,.752-1.8A2.86,2.86,0,0,0,53.75,78.6Z" transform="translate(-49.95 -76.714)"/><path class="a" d="M46.065,76.42a.422.422,0,0,1-.07-.006c-.371-.062-.841-.853-.846-.861a4.206,4.206,0,0,1-.555-2.2,3.576,3.576,0,0,1,.612-2.059c.173-.244.587-.707.909-.707.189,0,.34.1.67.454.37.4.409.5.409.645a.488.488,0,0,1-.175.353,1.972,1.972,0,0,0-.577,1.464,1.843,1.843,0,0,0,.566,1.423.488.488,0,0,1,.177.353c0,.171-.074.272-.345.562a5.888,5.888,0,0,1-.421.413A.541.541,0,0,1,46.065,76.42ZM46.1,71.5a2.5,2.5,0,0,0-.7,1.868,3.2,3.2,0,0,0,.675,2.11c.057-.057.116-.119.171-.177a2.616,2.616,0,0,1-.613-1.818,2.876,2.876,0,0,1,.629-1.809C46.212,71.612,46.153,71.55,46.1,71.5Z" transform="translate(-42.318 -69.108)"/><path class="a" d="M200.227,49.24a4.642,4.642,0,0,1,1.67,3.837,5.314,5.314,0,0,1-1.648,4.115,3.832,3.832,0,0,1-.83-.741,4.348,4.348,0,0,0,1.361-3.3,4,4,0,0,0-1.35-3.174C199.431,49.935,200.05,49.24,200.227,49.24Z" transform="translate(-189.326 -48.836)"/><path class="a" d="M192.646,50c-.171,0-.32-.1-.609-.358-.617-.545-.617-.641-.617-.787a.487.487,0,0,1,.189-.363,3.956,3.956,0,0,0,1.172-2.934,3.525,3.525,0,0,0-1.133-2.785.514.514,0,0,1-.217-.389c0-.121,0-.216.448-.671.389-.4.576-.475.752-.475.09,0,.215,0,.571.347a4.531,4.531,0,0,1,.628.777,5.686,5.686,0,0,1,.876,3.117,6.475,6.475,0,0,1-.845,3.264,5.124,5.124,0,0,1-.611.851c-.337.374-.462.39-.545.4A.454.454,0,0,1,192.646,50Zm-.269-1.142c.079.075.167.155.245.222a5.271,5.271,0,0,0,1.276-3.6,4.519,4.519,0,0,0-1.294-3.346c-.071.064-.152.146-.226.224a4.446,4.446,0,0,1,1.212,3.2,4.762,4.762,0,0,1-1.213,3.3Z" transform="translate(-181.73 -41.24)"/><path class="a" d="M168.573,78.6a2.553,2.553,0,0,1,1.117,2.367,3.253,3.253,0,0,1-1.06,2.655,3.788,3.788,0,0,1-.719-.73,2.347,2.347,0,0,0,.741-1.792,2.429,2.429,0,0,0-.752-1.8A2.86,2.86,0,0,1,168.573,78.6Z" transform="translate(-159.398 -76.714)"/><path class="a" d="M161.011,76.477a.544.544,0,0,1-.353-.159,5.889,5.889,0,0,1-.421-.413c-.272-.291-.345-.394-.345-.562a.488.488,0,0,1,.177-.353,1.843,1.843,0,0,0,.564-1.422,1.975,1.975,0,0,0-.577-1.464.482.482,0,0,1-.175-.353c0-.144.039-.248.409-.645.33-.353.481-.454.67-.454.323,0,.736.463.909.707a3.577,3.577,0,0,1,.612,2.059,4.169,4.169,0,0,1-.555,2.2c0,.008-.475.8-.846.861a.424.424,0,0,1-.068,0Zm-.184-1.123c.055.058.114.12.171.177a3.188,3.188,0,0,0,.675-2.108,2.49,2.49,0,0,0-.7-1.868c-.054.054-.112.116-.166.175a2.877,2.877,0,0,1,.629,1.809,2.616,2.616,0,0,1-.613,1.815Z" transform="translate(-151.783 -69.165)"/><path class="a" d="M100.2,102.019a1.288,1.288,0,0,1-1.353,1.387,1.4,1.4,0,0,1-1.353-1.387,1.343,1.343,0,0,1,1.353-1.387A1.327,1.327,0,0,1,100.2,102.019Z" transform="translate(-92.543 -97.632)"/><path class="a" d="M91.327,96.2q-.057,0-.115,0a1.8,1.8,0,0,1-1.732-1.79,1.741,1.741,0,0,1,1.747-1.791,1.678,1.678,0,0,1,1.229.473,1.843,1.843,0,0,1,.538,1.317,1.868,1.868,0,0,1-.555,1.363A1.584,1.584,0,0,1,91.327,96.2Zm-.054-2.777h-.026a.946.946,0,0,0-.959.983,1,1,0,0,0,.973.984.8.8,0,0,0,.623-.21,1.059,1.059,0,0,0,.3-.775,1.031,1.031,0,0,0-.294-.739.865.865,0,0,0-.619-.243Z" transform="translate(-84.937 -90.024)"/><path class="b" d="M9.18,49.24a4.642,4.642,0,0,0-1.67,3.837,5.314,5.314,0,0,0,1.648,4.115,3.832,3.832,0,0,0,.83-.741,4.348,4.348,0,0,1-1.361-3.3,3.994,3.994,0,0,1,1.35-3.173C9.977,49.935,9.358,49.24,9.18,49.24Z" transform="translate(-7.106 -48.836)"/><path class="b" d="M53.75,78.6a2.553,2.553,0,0,0-1.117,2.367,3.253,3.253,0,0,0,1.06,2.655,3.789,3.789,0,0,0,.719-.73,2.347,2.347,0,0,1-.741-1.792,2.429,2.429,0,0,1,.752-1.8A2.86,2.86,0,0,0,53.75,78.6Z" transform="translate(-49.95 -76.714)"/><path class="b" d="M200.227,49.24a4.642,4.642,0,0,1,1.67,3.837,5.314,5.314,0,0,1-1.648,4.115,3.832,3.832,0,0,1-.83-.741,4.348,4.348,0,0,0,1.361-3.3,4,4,0,0,0-1.35-3.174C199.431,49.935,200.05,49.24,200.227,49.24Z" transform="translate(-189.326 -48.836)"/><path class="b" d="M168.573,78.6a2.553,2.553,0,0,1,1.117,2.367,3.253,3.253,0,0,1-1.06,2.655,3.788,3.788,0,0,1-.719-.73,2.347,2.347,0,0,0,.741-1.792,2.429,2.429,0,0,0-.752-1.8A2.86,2.86,0,0,1,168.573,78.6Z" transform="translate(-159.398 -76.714)"/><path class="c" d="M100.2,102.019a1.288,1.288,0,0,1-1.353,1.387,1.4,1.4,0,0,1-1.353-1.387,1.343,1.343,0,0,1,1.353-1.387A1.327,1.327,0,0,1,100.2,102.019Z" transform="translate(-92.543 -97.632)"/></g></svg>